# AST/ASF file generated using VICON BodyLanguage
# -----------------------------------------------
:version 1.10
:name VICON
:units
  mass 1.0
  length 0.45
  angle deg
:documentation
   .ast/.asf automatically generated from VICON data using
   VICON BodyBuilder and BodyLanguage model FoxedUp or BRILLIANT.MOD
:root
   order TX TY TZ RX RY RZ
   axis XYZ
   position 0 0 0  
   orientation 0 0 0 
:bonedata
  begin
     id 1 
     name lhipjoint
     direction 0.584852 -0.759097 0.285867 
     length 2.43633 
     axis 0 0 0  XYZ
  end
  begin
     id 2 
     name lfemur
     direction 0.34202 -0.939693 0  
     length 7.14704  
     axis 0 0 20  XYZ
    dof rx ry rz
    limits (-160.0 20.0)
           (-70.0 70.0)
           (-60.0 70.0)
  end
  begin
     id 3 
     name ltibia
     direction 0.342022 -0.939692 0   
     length 7.68483   
     axis 0 0 20   XYZ
    dof rx
    limits (-10.0 170.0)
  end
  begin
     id 4 
     name lfoot
     direction 0.0999605 -0.274639 0.956337   
     length 2.40452   
     axis -90 7.62852e-016 20   XYZ
    dof rx rz
    limits (-45.0 90.0)
           (-70.0 20.0)
  end
  begin
     id 5 
     name ltoes
     direction 1.53468e-011 -4.21881e-011 1   
     length 1.19837   
     axis -90 7.62852e-016 20   XYZ
    dof rx
    limits (-90.0 20.0)
  end
  begin
     id 6 
     name rhipjoint
     direction -0.569886 -0.769002 0.289597   
     length 2.40495  
     axis 0 0 0  XYZ 
  end
  begin
     id 7 
     name rfemur
     direction -0.34202 -0.939693 0   
     length 7.45086   
     axis 0 0 -20   XYZ
    dof rx ry rz
    limits (-160.0 20.0)
           (-70.0 70.0)
           (-70.0 60.0)
  end
  begin
     id 8 
     name rtibia
     direction -0.34202 -0.939693 0   
     length 7.76831   
     axis 0 0 -20   XYZ
    dof rx
    limits (-10.0 170.0)
 end
 begin
     id 9 
     name rfoot
     direction -0.0798572 -0.219406 0.97236   
     length 2.35911  
     axis -90 -7.62852e-016 -20   XYZ
    dof rx rz
    limits (-45.0 90.0)
           (-20.0 70.0)
  end
  begin
     id 10 
     name rtoes
     direction -1.53469e-011 -4.21728e-011 1   
     length 1.18261   
     axis -90 -7.62852e-016 -20   XYZ
    dof rx
    limits (-90.0 20.0)
  end
  begin
     id 11 
     name lowerback
     direction 0.0242088 0.999437 0.0232389   
     length 2.1561   
     axis 0 0 0   XYZ
    dof rx ry rz
    limits (-20.0 45.0)
           (-30.0 30.0)
           (-30.0 30.0)
  end
  begin
     id 12 
     name upperback
     direction -0.0356893 0.999013 -0.0264323   
     length 2.14431   
     axis 0 0 0   XYZ
    dof rx ry rz
    limits (-20.0 45.0)
           (-30.0 30.0)
           (-30.0 30.0)
  end
  begin
     id 13 
     name thorax
     direction -0.0472163 0.998194 -0.0371284   
     length 2.16169   
     axis 0 0 0   XYZ
    dof rx ry rz
    limits (-20.0 45.0)
           (-30.0 30.0)
           (-30.0 30.0)
  end
  begin
     id 14 
     name lowerneck
     direction 0.00863244 0.999921 0.00911972   
     length 1.58651   
     axis 0 0 0   XYZ
    dof rx ry rz
    limits (-20.0 45.0)
           (-30.0 30.0)
           (-30.0 30.0)
  end
  begin
     id 15 
     name upperneck
     direction 0.149523 0.979068 -0.138086   
     length 1.57486   
     axis 0 0 0   XYZ
    dof rx ry rz
    limits (-20.0 45.0)
           (-30.0 30.0)
           (-30.0 30.0)
  end
  begin
     id 16
     name head
     direction 0.0445219 0.997708 -0.0509576  
     length 1.6019  
     axis 0 0 0   XYZ
    dof rx ry rz
    limits (-20.0 45.0)
           (-30.0 30.0)
           (-30.0 30.0)
  end
  begin
     id 17 
     name lclavicle
     direction 0.911271 0.381667 -0.154644  
     length 3.80848  
     axis 0 0 0   XYZ
    dof ry rz
    limits (-20.0 10.0)
           (0.0 20.0)
  end
  begin
     id 18 
     name lhumerus
     direction 1 -4.49003e-011 2.1308e-027   
     length 5.19069   
     axis 180 -30 -90   XYZ
    dof rx ry rz
    limits (-60.0 90.0)
           (-90.0 90.0)
           (-90.0 90.0)
  end
  begin
     id 19
     name lradius
     direction 1 -4.48914e-011 4.01554e-027   
     length 3.30016   
     axis 180 -30 -90   XYZ
    dof rx
    limits (-10.0 170.0)
  end
  begin
     id 20
     name lwrist
     direction 1 -4.49003e-011 1.1934e-026   
     length 1.65008   
     axis -8.46377e-015 90 90   XYZ
    dof ry
    limits (-180.0 0.0)
 end
  begin
     id 21 
     name lhand
     direction 1 -4.49034e-011 2.38659e-026   
     length 0.707698   
     axis -1.52313e-014 90 90   XYZ
    dof rx rz
    limits (-90.0 90.0)
           (-45.0 45.0)
  end
  begin
     id 22 
     name lfingers
     direction 1 -4.48691e-011 4.77775e-026   
     length 0.570564   
     axis -3.04623e-014 90 90   XYZ
    dof rx
    limits (0.0 90.0)
  end
  begin
     id 23
     name lthumb
     direction 0.707107 -6.34832e-011 0.707107   
     length 0.819219   
     axis -90 45 -1.62303e-014   XYZ
    dof rx rz
    limits (-45.0 45.0)
           (-45.0 45.0)
  end
  begin
     id 24 
     name rclavicle
     direction -0.815579 0.573708 -0.0754329   
     length 3.54371  
     axis 0 0 0   XYZ 
    dof ry rz
    limits (-10.0 20.0)
           (-20.0 0.0)
  end
  begin
     id 25 
     name rhumerus
     direction -1 -4.48956e-011 3.05351e-028  
     length 5.23924   
     axis 180 30 90   XYZ
    dof rx ry rz
    limits (-90.0 60.0)
           (-90.0 90.0)
           (-90.0 90.0)
  end
  begin
     id 26 
     name rradius
     direction -1 -4.49013e-011 3.53849e-027   
     length 3.32953   
     axis 180 30 90   XYZ
    dof rx
    limits (-10.0 170.0)
  end
  begin
     id 27 
     name rwrist
     direction -1 -4.48901e-011 1.19374e-026   
     length 1.66477   
     axis -8.46377e-015 -90 -90   XYZ
    dof ry
    limits (-180.0 0.0)
  end
  begin
     id 28
     name rhand
     direction -1 -4.48877e-011 2.38764e-026   
     length 0.607414   
     axis -1.52313e-014 -90 -90   XYZ
    dof rx rz
    limits (-90.0 90.0)
           (-45.0 45.0)
  end
  begin
     id 29
     name rfingers
     direction -1 -4.48882e-011 4.77521e-026   
     length 0.489712   
     axis -3.04623e-014 -90 -90   XYZ
    dof rx
    limits (0.0 90.0)
  end
  begin
     id 30
     name rthumb
     direction -0.707107 -6.34974e-011 0.707107   
     length 0.703132   
     axis -90 -45 1.62303e-014   XYZ
    dof rx rz
    limits (-45.0 45.0)
           (-45.0 45.0)
  end
:hierarchy
  begin
    root lhipjoint rhipjoint lowerback
    lhipjoint lfemur
    lfemur ltibia
    ltibia lfoot
    lfoot ltoes
    rhipjoint rfemur
    rfemur rtibia
    rtibia rfoot
    rfoot rtoes
    lowerback upperback
    upperback thorax
    thorax lowerneck lclavicle rclavicle
    lowerneck upperneck
    upperneck head
    lclavicle lhumerus
    lhumerus lradius
    lradius lwrist
    lwrist lhand lthumb
    lhand lfingers
    rclavicle rhumerus
    rhumerus rradius
    rradius rwrist
    rwrist rhand rthumb
    rhand rfingers
  end

#!OML:ASF E:\VariousWalksJay\Project 1\Capture day 1\Session 1\Actor2.ASF
:FULLY-SPECIFIED
:DEGREES
160
root 26.8077 16.8249 -30.4814 11.1819 -34.5057 -1.3337
lowerback 10.7247 -1.67163 3.72437
upperback 10.8899 -2.15737 -1.50106
thorax 5.27905 -0.864111 -3.53896
lowerneck -6.18226 -2.1892 -2.35056
upperneck 3.83616 -3.21287 8.43015
head 2.53858 -1.39881 3.05444
rclavicle -2.70347e-014 1.35174e-014
rhumerus -28.6818 19.3723 -85.7387
rradius 67.1249
rwrist -4.43677
rhand -20.8481 -7.01398
rfingers 7.12502
rthumb 5.52103 -36.9221
lclavicle -2.70347e-014 1.35174e-014
lhumerus -6.00304 -31.8108 86.0224
lradius 77.4704
lwrist 63.2589
lhand -33.2259 14.6895
lfingers 7.12502
lthumb -6.4323 44.5719
rfemur -39.6912 -0.392187 19.6359
rtibia 52.2614
rfoot -22.6179 -8.29353
rtoes -1.88385
lfemur -36.544 11.1336 -26.316
ltibia 47.6021
lfoot -23.5809 12.915
ltoes -2.24907
161
root 26.8251 16.8097 -30.4791 11.2296 -34.5981 -1.33311
lowerback 10.8541 -1.68742 3.64832
upperback 10.9182 -2.18111 -1.48587
thorax 5.23927 -0.88312 -3.47544
lowerneck -6.01226 -2.14522 -2.35818
upperneck 3.64133 -3.13902 8.41228
head 2.43665 -1.37066 3.05109
rclavicle -9.42239e-014 7.03698e-014
rhumerus -28.5508 19.4625 -85.6586
rradius 67.1545
rwrist -4.44831
rhand -20.9734 -6.96469
rfingers 7.12502
rthumb 5.40003 -36.8759
lclavicle -9.42239e-014 7.03698e-014
lhumerus -5.94167 -31.7638 86.0365
lradius 77.6083
lwrist 63.2509
lhand -33.2517 14.5968
lfingers 7.12502
lthumb -6.45719 44.4783
rfemur -39.9322 -0.381365 19.5728
rtibia 52.5161
rfoot -22.6268 -8.25025
rtoes -2.09959
lfemur -36.7607 11.1182 -26.4012
ltibia 47.8494
lfoot -23.6949 12.9786
ltoes -2.17043
162
root 26.8426 16.7946 -30.4762 11.2781 -34.6822 -1.32858
lowerback 10.9741 -1.70716 3.56891
upperback 10.9465 -2.21064 -1.47291
thorax 5.20422 -0.904984 -3.41221
lowerneck -5.81437 -2.09697 -2.37742
upperneck 3.42843 -3.05862 8.41368
head 2.3244 -1.33988 3.0567
rclavicle 9.14409e-015 7.95139e-015
rhumerus -28.4147 19.5479 -85.5815
rradius 67.1744
rwrist -4.45784
rhand -21.0875 -6.89879
rfingers 7.12502
rthumb 5.28991 -36.8128
lclavicle 9.14409e-015 7.95139e-015
lhumerus -5.88204 -31.706 86.0509
lradius 77.7495
lwrist 63.2254
lhand -33.2603 14.5634
lfingers 7.12502
lthumb -6.46553 44.4447
rfemur -40.1744 -0.379679 19.5058
rtibia 52.7736
rfoot -22.6425 -8.20561
rtoes -2.31005
lfemur -36.9758 11.0852 -26.4893
ltibia 48.093
lfoot -23.8134 13.0526
ltoes -2.09522
163
root 26.8601 16.7794 -30.4729 11.3269 -34.7619 -1.31988
lowerback 11.0865 -1.72445 3.48229
upperback 10.9725 -2.23768 -1.45847
thorax 5.17133 -0.926053 -3.34366
lowerneck -5.5792 -2.05262 -2.40578
upperneck 3.19296 -2.98205 8.42652
head 2.19901 -1.31211 3.06763
rclavicle -1.33186e-013 6.55989e-014
rhumerus -28.2845 19.624 -85.5003
rradius 67.192
rwrist -4.46774
rhand -21.2001 -6.8342
rfingers 7.12502
rthumb 5.18113 -36.7509
lclavicle -1.33186e-013 6.55989e-014
lhumerus -5.81316 -31.6633 86.0687
lradius 77.8824
lwrist 63.19
lhand -33.3191 14.395
lfingers 7.12502
lthumb -6.52222 44.2746
rfemur -40.4184 -0.383431 19.4342
rtibia 53.0351
rfoot -22.6642 -8.15891
rtoes -2.51577
lfemur -37.1888 11.0457 -26.5825
ltibia 48.3317
lfoot -23.9359 13.1317
ltoes -2.02969
164
root 26.8776 16.7642 -30.4692 11.3762 -34.8369 -1.30298
lowerback 11.1707 -1.72723 3.41835
upperback 11.0157 -2.24514 -1.46949
thorax 5.17319 -0.933858 -3.31742
lowerneck -5.34143 -2.02384 -2.3881
upperneck 2.93153 -2.92934 8.45892
head 2.06602 -1.2959 3.07547
rclavicle -1.17681e-013 5.4467e-014
rhumerus -28.1271 19.6134 -85.4389
rradius 67.1943
rwrist -4.465
rhand -21.3076 -6.74024
rfingers 7.12502
rthumb 5.07737 -36.6594
lclavicle -1.17681e-013 5.4467e-014
lhumerus -5.6781 -31.6909 86.026
lradius 78.0027
lwrist 63.1595
lhand -33.3711 14.3026
lfingers 7.12502
lthumb -6.57243 44.1806
rfemur -40.6684 -0.392276 19.3542
rtibia 53.3015
rfoot -22.6895 -8.1093
rtoes -2.73181
lfemur -37.401 10.9952 -26.6829
ltibia 48.5631
lfoot -24.0638 13.2132
ltoes -1.95618
165
root 26.895 16.749 -30.4651 11.4255 -34.9101 -1.28259
lowerback 11.2471 -1.72864 3.34269
upperback 11.0568 -2.25186 -1.47779
thorax 5.17751 -0.942128 -3.28197
lowerneck -5.07194 -1.99434 -2.38431
upperneck 2.65406 -2.87395 8.50357
head 1.92309 -1.27945 3.09031
rclavicle -3.85642e-014 2.98177e-014
rhumerus -27.9717 19.6032 -85.3751
rradius 67.1881
rwrist -4.46368
rhand -21.4126 -6.62743
rfingers 7.12502
rthumb 4.97593 -36.549
lclavicle -3.85642e-014 2.98177e-014
lhumerus -5.54284 -31.7087 85.998
lradius 78.1121
lwrist 63.1161
lhand -33.4412 14.1618
lfingers 7.12502
lthumb -6.64013 44.0377
rfemur -40.9207 -0.4038 19.27
rtibia 53.5741
rfoot -22.7176 -8.05368
rtoes -2.94265
lfemur -37.6067 10.938 -26.7857
ltibia 48.7848
lfoot -24.1984 13.2976
ltoes -1.88032
166
root 26.9123 16.7338 -30.4607 11.4787 -34.9792 -1.26469
lowerback 11.2995 -1.71918 3.2918
upperback 11.1094 -2.24336 -1.50385
thorax 5.20769 -0.939764 -3.28134
lowerneck -4.76897 -1.97999 -2.35471
upperneck 2.33837 -2.83865 8.56658
head 1.76338 -1.2742 3.10589
rclavicle 2.50469e-014 6.04305e-014
rhumerus -27.7988 19.5302 -85.3288
rradius 67.1622
rwrist -4.44799
rhand -21.5203 -6.49766
rfingers 7.12502
rthumb 4.87195 -36.4216
lclavicle 2.50469e-014 6.04305e-014
lhumerus -5.34343 -31.7809 85.9218
lradius 78.1899
lwrist 63.0913
lhand -33.5722 13.857
lfingers 7.12502
lthumb -6.76658 43.7288
rfemur -41.1778 -0.418847 19.1871
rtibia 53.8551
rfoot -22.7465 -7.98894
rtoes -3.13285
lfemur -37.8069 10.8719 -26.8842
ltibia 48.9948
lfoot -24.3381 13.3839
ltoes -1.79681
